<?xml version="1.0" standalone="no"?>
<!DOCTYPE svg PUBLIC "-//W3C//DTD SVG 20010904//EN"
 "http://www.w3.org/TR/2001/REC-SVG-20010904/DTD/svg10.dtd">
<svg version="1.0" xmlns="http://www.w3.org/2000/svg"
 width="256.000000pt" height="256.000000pt" viewBox="0 0 256.000000 256.000000"
 preserveAspectRatio="xMidYMid meet">
<metadata>
Created by potrace 1.11, written by Peter Selinger 2001-2013
</metadata>
<g transform="translate(0.000000,256.000000) scale(0.100000,-0.100000)"
fill="#000000" stroke="none">
<path d="M1075 2545 c-287 -53 -503 -165 -699 -360 -176 -176 -292 -388 -352
-645 -20 -88 -28 -364 -13 -450 73 -414 305 -742 662 -939 271 -150 636 -191
948 -107 428 115 782 472 898 906 40 152 53 383 30 521 -80 465 -373 831 -803
1003 -141 56 -257 77 -436 81 -108 2 -189 -1 -235 -10z"/>
</g>
</svg>
