<?xml version="1.0" encoding="utf-8"?>
<!-- Generator: Adobe Illustrator 24.2.1, SVG Export Plug-In . SVG Version: 6.00 Build 0)  -->
<svg version="1.1" id="Layer_1" xmlns="http://www.w3.org/2000/svg" xmlns:xlink="http://www.w3.org/1999/xlink" x="0px" y="0px"
	 viewBox="0 0 16 16" style="enable-background:new 0 0 16 16;" xml:space="preserve">
<g>
	<path d="M1.2,15L1.2,15c-0.2-0.2-0.2-0.7,0-0.9L14.3,1c0.2-0.2,0.7-0.2,0.9,0l0,0c0.2,0.2,0.2,0.7,0,0.9L2.1,15
		C1.8,15.3,1.4,15.3,1.2,15z"/>
	<g>
		<path d="M4.9,10.5l-1.6,1.6c0.3,0.2,0.6,0.4,0.9,0.6l1.5-1.5C5.4,11.1,5.1,10.8,4.9,10.5z"/>
		<path d="M9.1,6.3L6.3,9.1c0.2,0.3,0.5,0.6,0.8,0.7l2.6-2.6C9.7,6.8,9.4,6.5,9.1,6.3z"/>
		<path d="M8,10c1.1,0,2-0.9,2-2c0-0.2,0-0.3-0.1-0.5L7.5,9.9C7.7,10,7.8,10,8,10z"/>
		<path d="M13.2,4.2L11.5,6C11.8,6.6,12,7.3,12,8c0,2.2-1.8,4-4,4c-0.7,0-1.4-0.2-2-0.5L4.5,13c1.1,0.6,2.3,1,3.5,1c4.1,0,8-4.6,8-6
			C16,7.3,14.9,5.6,13.2,4.2z"/>
		<path d="M8,6c0,1.1-0.9,2-2,2c0,0.3,0.1,0.5,0.2,0.8l2.6-2.6C8.5,6.1,8.3,6,8,6z"/>
		<path d="M3,11.9l1.7-1.7C4.3,9.6,4,8.8,4,8c0-2.2,1.8-4,4-4c0.8,0,1.6,0.3,2.2,0.7l1.5-1.5C10.6,2.5,9.3,2,8,2C3.9,2,0,6.6,0,8
			C0,8.8,1.2,10.5,3,11.9z"/>
		<path d="M12.1,3.4l-1.5,1.5c0.3,0.2,0.5,0.5,0.8,0.8L13,4C12.7,3.8,12.4,3.6,12.1,3.4z"/>
	</g>
</g>
</svg>
